<svg xmlns="http://www.w3.org/2000/svg" width="342.48449" height="545.06119" viewBox="0 0 342.48449 545.06119" xmlns:xlink="http://www.w3.org/1999/xlink"><path d="m174.61614,532.59794l-.00666.00666c-.06048-.06846-.12261-.13593-.18808-.20139-1.72084-1.72084-4.51083-1.72079-6.23162,0s-1.72084,4.51079,0,6.23162c.06547.06547.13293.12761.20139.18808l-.00666.00666,6.23162,6.23162,6.23162-6.23162c1.72079-1.72079,1.72079-4.51083,0-6.23162s-4.51083-1.72079-6.23162,0Z" fill="#17cf97" stroke-width="0"/><path d="m174.82707,231.82534l-.00666.00666c-.06048-.06846-.12261-.13593-.18808-.20139-1.72084-1.72084-4.51083-1.72079-6.23162,0s-1.72084,4.51079,0,6.23162c.06547.06547.13293.12761.20139.18808l-.00666.00666,6.23162,6.23162,6.23162-6.23162c1.72079-1.72079,1.72079-4.51083,0-6.23162s-4.51083-1.72079-6.23162,0Z" fill="#17cf97" stroke-width="0"/><line x1="28.3715" y1="5.40409" x2="99.66202" y2="5.40409" fill="none" stroke="#090814" stroke-miterlimit="10" stroke-width="2"/><line x1="28.3715" y1="32.42457" x2="178.33512" y2="32.42457" fill="none" stroke="#090814" stroke-miterlimit="10" stroke-width="2"/><line x1="28.3715" y1="20.26535" x2="243.18425" y2="20.26535" fill="none" stroke="#090814" stroke-miterlimit="10" stroke-width="2"/><circle cx="12.15921" cy="12.15921" r="12.15921" fill="#17cf97" stroke-width="0"/><path d="m332.08299,220.21685H38.09748c-5.73558,0-10.4015-4.66657-10.4015-10.40183V55.66112c0-5.73525,4.66591-10.40183,10.4015-10.40183h293.98551c5.73558,0,10.4015,4.66657,10.4015,10.40183v154.15391c0,5.73525-4.66591,10.40183-10.4015,10.40183Z" fill="#d8d8d8" stroke-width="0"/><line x1="28.3715" y1="306.40409" x2="99.66202" y2="306.40409" fill="none" stroke="#090814" stroke-miterlimit="10" stroke-width="2"/><line x1="28.3715" y1="333.42457" x2="178.33512" y2="333.42457" fill="none" stroke="#090814" stroke-miterlimit="10" stroke-width="2"/><line x1="28.3715" y1="321.26535" x2="243.18425" y2="321.26535" fill="none" stroke="#090814" stroke-miterlimit="10" stroke-width="2"/><circle cx="12.15921" cy="313.15921" r="12.15921" fill="#17cf97" stroke-width="0"/><path d="m332.08299,521.21685H38.09748c-5.73558,0-10.4015-4.66657-10.4015-10.40183v-154.15391c0-5.73525,4.66591-10.40183,10.4015-10.40183h293.98551c5.73558,0,10.4015,4.66657,10.4015,10.40183v154.15391c0,5.73525-4.66591,10.40183-10.4015,10.40183Z" fill="#d8d8d8" stroke-width="0"/></svg>